P2
9 9
9
1 8 2 6 4 7 5 3 9
5 7 9 3 1 2 8 4 6
3 6 4 8 5 9 2 1 7
8 2 3 1 7 6 4 9 5
9 4 7 2 8 5 3 6 1
6 5 1 4 9 3 7 2 8
7 3 6 9 2 8 1 5 4
4 9 5 7 3 1 6 8 2
2 1 8 5 6 4 9 7 3
